<svg xmlns="http://www.w3.org/2000/svg" viewBox="0 0 1882 579" width="235.25" height="72.38" role="img" aria-label="Lexora logo vectorized from source image">
  <title>Lexora logo</title>
  <path fill="#223B4D" fill-rule="evenodd" d="M 293.00,419.00 L 259.00,385.00 L 253.00,377.00 L 251.00,376.00 L 227.00,352.00 L 225.00,351.00 L 218.00,351.00 L 217.00,352.00 L 215.00,352.00 L 207.00,360.00 L 207.00,361.00 L 158.00,409.00 L 158.00,410.00 L 152.00,416.00 L 147.00,419.00 L 143.00,423.00 L 143.00,424.00 L 131.00,436.00 L 130.00,436.00 L 129.00,438.00 L 115.00,452.00 L 114.00,452.00 L 99.00,468.00 L 98.00,468.00 L 91.00,475.00 L 88.00,475.00 L 76.00,463.00 L 75.00,463.00 L 71.00,459.00 L 69.00,455.00 L 60.00,447.00 L 59.00,447.00 L 55.00,443.00 L 54.00,440.00 L 45.00,431.00 L 44.00,431.00 L 28.00,414.00 L 25.00,413.00 L 20.00,408.00 L 15.00,408.00 L 12.00,411.00 L 12.00,557.00 L 13.00,558.00 L 13.00,560.00 L 17.00,564.00 L 23.00,565.00 L 24.00,566.00 L 34.00,566.00 L 35.00,565.00 L 44.00,565.00 L 45.00,566.00 L 50.00,566.00 L 51.00,565.00 L 96.00,565.00 L 97.00,566.00 L 99.00,565.00 L 148.00,565.00 L 149.00,564.00 L 155.00,563.00 L 171.00,547.00 L 172.00,547.00 L 187.00,531.00 L 190.00,530.00 L 191.00,528.00 L 200.00,519.00 L 200.00,518.00 L 202.00,516.00 L 205.00,515.00 L 212.00,507.00 L 213.00,507.00 L 228.00,491.00 L 232.00,488.00 L 234.00,485.00 L 237.00,484.00 L 241.00,478.00 L 244.00,476.00 L 250.00,469.00 L 253.00,468.00 L 256.00,464.00 L 268.00,452.00 L 269.00,452.00 L 283.00,437.00 L 289.00,433.00 L 293.00,427.00 Z M 1113.00,289.00 L 1112.00,290.00 L 1112.00,294.00 L 1117.00,303.00 L 1123.00,309.00 L 1125.00,313.00 L 1130.00,318.00 L 1132.00,323.00 L 1137.00,328.00 L 1141.00,335.00 L 1147.00,341.00 L 1149.00,346.00 L 1153.00,349.00 L 1156.00,356.00 L 1162.00,362.00 L 1164.00,366.00 L 1170.00,372.00 L 1172.00,377.00 L 1178.00,383.00 L 1180.00,387.00 L 1180.00,391.00 L 1179.00,392.00 L 1179.00,394.00 L 1173.00,400.00 L 1170.00,406.00 L 1164.00,412.00 L 1161.00,418.00 L 1156.00,423.00 L 1154.00,428.00 L 1140.00,444.00 L 1138.00,449.00 L 1132.00,455.00 L 1130.00,460.00 L 1124.00,466.00 L 1123.00,469.00 L 1115.00,478.00 L 1113.00,483.00 L 1106.00,489.00 L 1106.00,495.00 L 1110.00,498.00 L 1145.00,498.00 L 1147.00,497.00 L 1152.00,490.00 L 1158.00,484.00 L 1160.00,479.00 L 1165.00,475.00 L 1166.00,471.00 L 1168.00,468.00 L 1173.00,463.00 L 1175.00,459.00 L 1181.00,453.00 L 1183.00,448.00 L 1189.00,442.00 L 1191.00,437.00 L 1197.00,431.00 L 1198.00,428.00 L 1203.00,423.00 L 1208.00,423.00 L 1210.00,425.00 L 1213.00,431.00 L 1219.00,437.00 L 1220.00,440.00 L 1226.00,446.00 L 1227.00,450.00 L 1233.00,456.00 L 1237.00,463.00 L 1243.00,469.00 L 1245.00,474.00 L 1250.00,479.00 L 1252.00,484.00 L 1258.00,490.00 L 1260.00,494.00 L 1263.00,497.00 L 1265.00,498.00 L 1300.00,498.00 L 1304.00,495.00 L 1304.00,490.00 L 1303.00,488.00 L 1295.00,480.00 L 1294.00,477.00 L 1286.00,468.00 L 1285.00,465.00 L 1279.00,459.00 L 1278.00,455.00 L 1272.00,449.00 L 1268.00,442.00 L 1262.00,436.00 L 1260.00,431.00 L 1256.00,428.00 L 1253.00,421.00 L 1249.00,418.00 L 1245.00,411.00 L 1239.00,405.00 L 1237.00,402.00 L 1237.00,400.00 L 1230.00,393.00 L 1230.00,386.00 L 1231.00,384.00 L 1237.00,379.00 L 1239.00,373.00 L 1253.00,357.00 L 1255.00,352.00 L 1261.00,346.00 L 1263.00,341.00 L 1269.00,335.00 L 1270.00,332.00 L 1278.00,323.00 L 1280.00,318.00 L 1284.00,315.00 L 1286.00,310.00 L 1293.00,303.00 L 1295.00,298.00 L 1299.00,294.00 L 1299.00,291.00 L 1296.00,288.00 L 1292.00,288.00 L 1291.00,287.00 L 1264.00,287.00 L 1263.00,288.00 L 1258.00,289.00 L 1252.00,294.00 L 1251.00,298.00 L 1245.00,304.00 L 1242.00,310.00 L 1236.00,316.00 L 1233.00,322.00 L 1228.00,327.00 L 1226.00,332.00 L 1220.00,338.00 L 1219.00,341.00 L 1213.00,347.00 L 1210.00,353.00 L 1207.00,356.00 L 1205.00,356.00 L 1204.00,355.00 L 1202.00,355.00 L 1200.00,353.00 L 1197.00,347.00 L 1190.00,340.00 L 1188.00,335.00 L 1183.00,330.00 L 1181.00,325.00 L 1167.00,309.00 L 1165.00,304.00 L 1159.00,298.00 L 1157.00,293.00 L 1153.00,289.00 L 1151.00,288.00 L 1146.00,288.00 L 1145.00,287.00 L 1119.00,287.00 L 1118.00,288.00 Z M 1730.00,296.00 L 1725.00,301.00 L 1721.00,303.00 L 1714.00,310.00 L 1714.00,311.00 L 1707.00,319.00 L 1706.00,325.00 L 1700.00,335.00 L 1700.00,345.00 L 1701.00,346.00 L 1701.00,348.00 L 1704.00,351.00 L 1707.00,351.00 L 1708.00,352.00 L 1710.00,351.00 L 1712.00,351.00 L 1713.00,352.00 L 1728.00,352.00 L 1734.00,349.00 L 1737.00,346.00 L 1741.00,340.00 L 1741.00,336.00 L 1743.00,332.00 L 1754.00,322.00 L 1759.00,322.00 L 1762.00,320.00 L 1767.00,319.00 L 1769.00,317.00 L 1771.00,317.00 L 1772.00,316.00 L 1777.00,316.00 L 1778.00,315.00 L 1792.00,315.00 L 1793.00,316.00 L 1798.00,316.00 L 1802.00,319.00 L 1804.00,319.00 L 1814.00,323.00 L 1818.00,327.00 L 1819.00,330.00 L 1824.00,335.00 L 1827.00,342.00 L 1827.00,357.00 L 1828.00,358.00 L 1828.00,364.00 L 1824.00,368.00 L 1788.00,368.00 L 1787.00,369.00 L 1774.00,369.00 L 1773.00,370.00 L 1768.00,370.00 L 1760.00,373.00 L 1756.00,373.00 L 1755.00,374.00 L 1751.00,374.00 L 1750.00,375.00 L 1737.00,376.00 L 1727.00,382.00 L 1720.00,384.00 L 1716.00,388.00 L 1711.00,391.00 L 1701.00,401.00 L 1697.00,410.00 L 1693.00,415.00 L 1692.00,422.00 L 1691.00,423.00 L 1691.00,458.00 L 1694.00,466.00 L 1697.00,469.00 L 1699.00,473.00 L 1699.00,475.00 L 1710.00,486.00 L 1711.00,488.00 L 1714.00,490.00 L 1716.00,490.00 L 1720.00,492.00 L 1726.00,497.00 L 1728.00,497.00 L 1729.00,498.00 L 1735.00,498.00 L 1739.00,500.00 L 1742.00,500.00 L 1745.00,502.00 L 1751.00,502.00 L 1752.00,503.00 L 1758.00,503.00 L 1759.00,504.00 L 1772.00,503.00 L 1773.00,502.00 L 1776.00,502.00 L 1779.00,500.00 L 1782.00,500.00 L 1787.00,498.00 L 1792.00,498.00 L 1793.00,497.00 L 1798.00,496.00 L 1802.00,492.00 L 1806.00,490.00 L 1808.00,490.00 L 1817.00,481.00 L 1819.00,480.00 L 1821.00,476.00 L 1825.00,472.00 L 1827.00,472.00 L 1830.00,476.00 L 1830.00,491.00 L 1833.00,496.00 L 1837.00,498.00 L 1863.00,498.00 L 1867.00,496.00 L 1869.00,493.00 L 1869.00,347.00 L 1868.00,346.00 L 1868.00,339.00 L 1867.00,338.00 L 1867.00,335.00 L 1863.00,328.00 L 1861.00,318.00 L 1856.00,313.00 L 1853.00,307.00 L 1842.00,297.00 L 1839.00,295.00 L 1833.00,294.00 L 1824.00,288.00 L 1810.00,287.00 L 1809.00,286.00 L 1796.00,285.00 L 1795.00,284.00 L 1780.00,284.00 L 1779.00,285.00 L 1770.00,285.00 L 1769.00,286.00 L 1762.00,286.00 L 1761.00,287.00 L 1747.00,288.00 L 1735.00,295.00 Z M 1827.00,397.00 L 1828.00,401.00 L 1827.00,402.00 L 1827.00,436.00 L 1826.00,437.00 L 1826.00,439.00 L 1820.00,446.00 L 1818.00,451.00 L 1815.00,454.00 L 1812.00,455.00 L 1805.00,462.00 L 1795.00,465.00 L 1792.00,468.00 L 1784.00,471.00 L 1758.00,471.00 L 1757.00,470.00 L 1752.00,469.00 L 1749.00,466.00 L 1740.00,461.00 L 1736.00,457.00 L 1733.00,451.00 L 1733.00,447.00 L 1732.00,446.00 L 1732.00,442.00 L 1731.00,441.00 L 1732.00,429.00 L 1733.00,428.00 L 1733.00,422.00 L 1736.00,416.00 L 1741.00,411.00 L 1752.00,403.00 L 1754.00,403.00 L 1755.00,402.00 L 1760.00,402.00 L 1761.00,401.00 L 1767.00,401.00 L 1768.00,400.00 L 1771.00,400.00 L 1772.00,399.00 L 1775.00,399.00 L 1780.00,397.00 L 1788.00,397.00 L 1789.00,396.00 L 1820.00,395.00 L 1821.00,394.00 L 1823.00,394.00 Z M 1667.00,286.00 L 1660.00,285.00 L 1659.00,284.00 L 1649.00,284.00 L 1648.00,285.00 L 1642.00,285.00 L 1641.00,286.00 L 1627.00,288.00 L 1621.00,293.00 L 1614.00,296.00 L 1600.00,311.00 L 1597.00,311.00 L 1595.00,309.00 L 1595.00,293.00 L 1594.00,291.00 L 1590.00,288.00 L 1586.00,288.00 L 1585.00,287.00 L 1561.00,287.00 L 1560.00,288.00 L 1558.00,288.00 L 1556.00,290.00 L 1556.00,292.00 L 1555.00,293.00 L 1555.00,494.00 L 1557.00,497.00 L 1559.00,498.00 L 1591.00,498.00 L 1592.00,497.00 L 1594.00,497.00 L 1597.00,494.00 L 1597.00,358.00 L 1598.00,357.00 L 1598.00,351.00 L 1603.00,343.00 L 1617.00,330.00 L 1624.00,329.00 L 1637.00,324.00 L 1659.00,324.00 L 1663.00,326.00 L 1667.00,325.00 L 1669.00,323.00 L 1670.00,318.00 L 1671.00,317.00 L 1671.00,292.00 L 1670.00,291.00 L 1670.00,289.00 Z M 1416.00,284.00 L 1415.00,285.00 L 1408.00,285.00 L 1407.00,286.00 L 1402.00,286.00 L 1401.00,287.00 L 1393.00,287.00 L 1392.00,288.00 L 1388.00,288.00 L 1384.00,290.00 L 1381.00,293.00 L 1377.00,295.00 L 1372.00,296.00 L 1367.00,301.00 L 1362.00,303.00 L 1347.00,319.00 L 1345.00,324.00 L 1341.00,328.00 L 1339.00,332.00 L 1338.00,337.00 L 1333.00,344.00 L 1333.00,346.00 L 1332.00,347.00 L 1332.00,350.00 L 1331.00,351.00 L 1331.00,358.00 L 1330.00,359.00 L 1330.00,363.00 L 1329.00,364.00 L 1329.00,367.00 L 1328.00,368.00 L 1328.00,371.00 L 1326.00,376.00 L 1326.00,382.00 L 1325.00,383.00 L 1325.00,404.00 L 1326.00,405.00 L 1327.00,417.00 L 1329.00,421.00 L 1330.00,429.00 L 1331.00,430.00 L 1332.00,442.00 L 1336.00,447.00 L 1339.00,453.00 L 1341.00,460.00 L 1346.00,465.00 L 1347.00,468.00 L 1359.00,481.00 L 1363.00,483.00 L 1369.00,489.00 L 1374.00,490.00 L 1378.00,492.00 L 1384.00,497.00 L 1399.00,499.00 L 1410.00,503.00 L 1428.00,504.00 L 1429.00,503.00 L 1436.00,503.00 L 1444.00,500.00 L 1464.00,496.00 L 1470.00,491.00 L 1478.00,488.00 L 1479.00,486.00 L 1485.00,482.00 L 1500.00,466.00 L 1504.00,457.00 L 1509.00,451.00 L 1509.00,448.00 L 1510.00,447.00 L 1510.00,444.00 L 1511.00,443.00 L 1512.00,438.00 L 1514.00,436.00 L 1517.00,428.00 L 1517.00,421.00 L 1518.00,420.00 L 1518.00,366.00 L 1517.00,365.00 L 1517.00,359.00 L 1516.00,358.00 L 1515.00,353.00 L 1511.00,346.00 L 1508.00,334.00 L 1504.00,330.00 L 1502.00,326.00 L 1502.00,324.00 L 1500.00,321.00 L 1483.00,303.00 L 1480.00,302.00 L 1474.00,296.00 L 1467.00,294.00 L 1457.00,288.00 L 1454.00,288.00 L 1453.00,287.00 L 1445.00,287.00 L 1444.00,286.00 L 1432.00,285.00 L 1431.00,284.00 Z M 1419.00,317.00 L 1428.00,317.00 L 1429.00,318.00 L 1432.00,318.00 L 1433.00,319.00 L 1448.00,322.00 L 1451.00,324.00 L 1466.00,339.00 L 1468.00,343.00 L 1468.00,347.00 L 1472.00,352.00 L 1475.00,360.00 L 1475.00,367.00 L 1476.00,368.00 L 1476.00,383.00 L 1477.00,384.00 L 1477.00,402.00 L 1476.00,403.00 L 1476.00,418.00 L 1475.00,419.00 L 1475.00,426.00 L 1472.00,434.00 L 1468.00,439.00 L 1467.00,445.00 L 1451.00,462.00 L 1447.00,464.00 L 1441.00,465.00 L 1439.00,467.00 L 1437.00,467.00 L 1433.00,469.00 L 1428.00,469.00 L 1427.00,470.00 L 1412.00,469.00 L 1407.00,466.00 L 1402.00,465.00 L 1399.00,463.00 L 1396.00,463.00 L 1394.00,462.00 L 1389.00,457.00 L 1389.00,456.00 L 1383.00,451.00 L 1382.00,447.00 L 1376.00,440.00 L 1374.00,436.00 L 1374.00,431.00 L 1372.00,426.00 L 1372.00,422.00 L 1370.00,419.00 L 1370.00,417.00 L 1368.00,413.00 L 1368.00,405.00 L 1367.00,404.00 L 1367.00,381.00 L 1368.00,380.00 L 1368.00,373.00 L 1369.00,372.00 L 1369.00,369.00 L 1372.00,364.00 L 1373.00,356.00 L 1374.00,355.00 L 1374.00,349.00 L 1376.00,345.00 L 1381.00,340.00 L 1383.00,335.00 L 1395.00,324.00 L 1402.00,321.00 L 1406.00,321.00 L 1410.00,319.00 L 1418.00,318.00 Z M 984.00,284.00 L 983.00,285.00 L 976.00,285.00 L 975.00,286.00 L 971.00,286.00 L 970.00,287.00 L 961.00,287.00 L 960.00,288.00 L 954.00,289.00 L 950.00,293.00 L 939.00,297.00 L 934.00,302.00 L 931.00,303.00 L 921.00,313.00 L 921.00,314.00 L 916.00,318.00 L 915.00,322.00 L 909.00,329.00 L 907.00,333.00 L 906.00,338.00 L 901.00,345.00 L 901.00,347.00 L 900.00,348.00 L 898.00,364.00 L 896.00,368.00 L 896.00,371.00 L 894.00,376.00 L 894.00,381.00 L 893.00,382.00 L 893.00,407.00 L 894.00,408.00 L 895.00,418.00 L 897.00,421.00 L 897.00,424.00 L 898.00,425.00 L 899.00,436.00 L 900.00,437.00 L 901.00,443.00 L 905.00,447.00 L 907.00,454.00 L 909.00,458.00 L 913.00,462.00 L 915.00,467.00 L 930.00,482.00 L 934.00,484.00 L 939.00,489.00 L 941.00,489.00 L 948.00,492.00 L 954.00,497.00 L 969.00,499.00 L 970.00,500.00 L 980.00,502.00 L 981.00,503.00 L 995.00,504.00 L 996.00,503.00 L 1008.00,502.00 L 1009.00,501.00 L 1012.00,501.00 L 1013.00,500.00 L 1016.00,500.00 L 1021.00,498.00 L 1031.00,497.00 L 1039.00,491.00 L 1044.00,489.00 L 1047.00,489.00 L 1053.00,483.00 L 1058.00,480.00 L 1069.00,469.00 L 1072.00,462.00 L 1076.00,458.00 L 1078.00,453.00 L 1078.00,450.00 L 1080.00,446.00 L 1080.00,442.00 L 1081.00,441.00 L 1080.00,436.00 L 1076.00,433.00 L 1053.00,433.00 L 1051.00,432.00 L 1045.00,435.00 L 1043.00,438.00 L 1043.00,440.00 L 1041.00,444.00 L 1037.00,448.00 L 1035.00,453.00 L 1025.00,462.00 L 1020.00,464.00 L 1017.00,464.00 L 1007.00,469.00 L 1003.00,469.00 L 1002.00,470.00 L 984.00,470.00 L 983.00,469.00 L 979.00,469.00 L 972.00,465.00 L 962.00,462.00 L 950.00,451.00 L 949.00,447.00 L 943.00,440.00 L 943.00,438.00 L 941.00,434.00 L 941.00,429.00 L 936.00,417.00 L 936.00,406.00 L 940.00,403.00 L 942.00,404.00 L 945.00,404.00 L 946.00,403.00 L 950.00,403.00 L 951.00,404.00 L 1073.00,404.00 L 1074.00,403.00 L 1079.00,403.00 L 1081.00,402.00 L 1085.00,397.00 L 1085.00,381.00 L 1084.00,380.00 L 1084.00,370.00 L 1083.00,369.00 L 1083.00,365.00 L 1082.00,364.00 L 1081.00,358.00 L 1078.00,350.00 L 1077.00,340.00 L 1073.00,335.00 L 1070.00,329.00 L 1069.00,324.00 L 1063.00,318.00 L 1061.00,314.00 L 1050.00,303.00 L 1046.00,301.00 L 1041.00,296.00 L 1034.00,294.00 L 1025.00,288.00 L 1013.00,287.00 L 1012.00,286.00 L 1000.00,285.00 L 999.00,284.00 Z M 935.00,368.00 L 940.00,357.00 L 943.00,344.00 L 949.00,338.00 L 950.00,334.00 L 962.00,323.00 L 976.00,319.00 L 978.00,317.00 L 981.00,317.00 L 982.00,316.00 L 1000.00,316.00 L 1001.00,317.00 L 1006.00,318.00 L 1009.00,320.00 L 1015.00,321.00 L 1019.00,323.00 L 1032.00,335.00 L 1036.00,342.00 L 1037.00,348.00 L 1041.00,353.00 L 1042.00,359.00 L 1043.00,360.00 L 1043.00,367.00 L 1044.00,368.00 L 1044.00,371.00 L 1041.00,375.00 L 1039.00,375.00 L 1038.00,376.00 L 1036.00,375.00 L 939.00,375.00 L 935.00,372.00 Z M 452.00,263.00 L 445.00,263.00 L 440.00,269.00 L 436.00,271.00 L 434.00,274.00 L 430.00,278.00 L 429.00,278.00 L 427.00,281.00 L 421.00,287.00 L 420.00,287.00 L 417.00,291.00 L 414.00,293.00 L 410.00,297.00 L 410.00,298.00 L 405.00,303.00 L 404.00,303.00 L 395.00,312.00 L 395.00,313.00 L 389.00,319.00 L 388.00,319.00 L 378.00,329.00 L 378.00,330.00 L 374.00,334.00 L 373.00,334.00 L 369.00,338.00 L 369.00,339.00 L 366.00,341.00 L 362.00,345.00 L 362.00,346.00 L 358.00,350.00 L 357.00,350.00 L 353.00,354.00 L 353.00,355.00 L 350.00,357.00 L 345.00,362.00 L 345.00,363.00 L 330.00,377.00 L 330.00,378.00 L 326.00,382.00 L 323.00,383.00 L 322.00,385.00 L 314.00,392.00 L 313.00,394.00 L 313.00,400.00 L 314.00,402.00 L 337.00,426.00 L 338.00,428.00 L 337.00,431.00 L 333.00,435.00 L 332.00,435.00 L 328.00,439.00 L 328.00,440.00 L 315.00,453.00 L 314.00,453.00 L 305.00,462.00 L 305.00,463.00 L 299.00,469.00 L 298.00,469.00 L 287.00,480.00 L 287.00,481.00 L 283.00,485.00 L 282.00,485.00 L 215.00,552.00 L 211.00,555.00 L 211.00,562.00 L 213.00,564.00 L 218.00,565.00 L 219.00,566.00 L 221.00,566.00 L 222.00,565.00 L 247.00,565.00 L 248.00,566.00 L 252.00,566.00 L 253.00,565.00 L 498.00,565.00 L 502.00,562.00 L 503.00,560.00 L 503.00,556.00 L 504.00,555.00 L 503.00,553.00 L 503.00,478.00 L 504.00,477.00 L 504.00,474.00 L 503.00,473.00 L 503.00,430.00 L 504.00,429.00 L 504.00,426.00 L 503.00,425.00 L 503.00,399.00 L 504.00,398.00 L 504.00,396.00 L 503.00,395.00 L 503.00,330.00 L 504.00,329.00 L 503.00,317.00 L 501.00,313.00 L 487.00,300.00 L 485.00,296.00 L 482.00,294.00 L 479.00,290.00 L 470.00,282.00 L 470.00,281.00 L 462.00,273.00 L 462.00,272.00 Z M 694.00,207.00 L 691.00,211.00 L 691.00,494.00 L 692.00,496.00 L 695.00,498.00 L 865.00,498.00 L 867.00,497.00 L 870.00,493.00 L 870.00,468.00 L 868.00,464.00 L 865.00,462.00 L 737.00,462.00 L 733.00,458.00 L 733.00,219.00 L 734.00,218.00 L 734.00,213.00 L 733.00,212.00 L 733.00,210.00 L 728.00,206.00 L 696.00,206.00 Z M 268.00,76.00 L 261.00,73.00 L 239.00,73.00 L 238.00,74.00 L 233.00,74.00 L 225.00,78.00 L 87.00,216.00 L 86.00,216.00 L 84.00,219.00 L 71.00,232.00 L 70.00,232.00 L 68.00,235.00 L 55.00,248.00 L 54.00,248.00 L 53.00,250.00 L 40.00,263.00 L 39.00,263.00 L 37.00,266.00 L 22.00,281.00 L 20.00,282.00 L 14.00,290.00 L 12.00,294.00 L 12.00,348.00 L 17.00,356.00 L 22.00,361.00 L 23.00,361.00 L 39.00,378.00 L 43.00,381.00 L 43.00,382.00 L 60.00,399.00 L 60.00,400.00 L 62.00,401.00 L 76.00,415.00 L 76.00,416.00 L 85.00,424.00 L 87.00,425.00 L 92.00,425.00 L 101.00,419.00 L 103.00,416.00 L 120.00,399.00 L 120.00,398.00 L 126.00,394.00 L 127.00,392.00 L 134.00,386.00 L 136.00,382.00 L 142.00,378.00 L 151.00,368.00 L 151.00,367.00 L 164.00,355.00 L 165.00,355.00 L 168.00,350.00 L 170.00,348.00 L 173.00,347.00 L 176.00,343.00 L 194.00,326.00 L 196.00,323.00 L 196.00,320.00 L 197.00,319.00 L 196.00,315.00 L 184.00,304.00 L 184.00,303.00 L 172.00,290.00 L 171.00,285.00 L 180.00,276.00 L 181.00,276.00 L 183.00,273.00 L 189.00,267.00 L 190.00,267.00 L 192.00,264.00 L 196.00,261.00 L 211.00,245.00 L 212.00,245.00 L 245.00,212.00 L 246.00,212.00 L 248.00,209.00 L 253.00,204.00 L 254.00,204.00 L 256.00,201.00 L 262.00,195.00 L 263.00,195.00 L 264.00,193.00 L 269.00,188.00 L 270.00,188.00 L 272.00,185.00 L 277.00,180.00 L 278.00,180.00 L 289.00,169.00 L 289.00,168.00 L 293.00,165.00 L 306.00,152.00 L 306.00,151.00 L 320.00,138.00 L 321.00,136.00 L 321.00,130.00 L 320.00,128.00 L 317.00,126.00 L 304.00,113.00 L 304.00,112.00 L 289.00,98.00 L 289.00,97.00 L 274.00,82.00 L 274.00,81.00 Z M 501.00,13.00 L 499.00,12.00 L 495.00,12.00 L 493.00,13.00 L 477.00,30.00 L 476.00,30.00 L 468.00,38.00 L 467.00,38.00 L 464.00,43.00 L 452.00,54.00 L 451.00,54.00 L 450.00,56.00 L 444.00,62.00 L 443.00,62.00 L 442.00,64.00 L 437.00,69.00 L 436.00,69.00 L 428.00,78.00 L 427.00,78.00 L 425.00,81.00 L 421.00,85.00 L 420.00,85.00 L 413.00,93.00 L 412.00,93.00 L 405.00,101.00 L 404.00,101.00 L 389.00,117.00 L 388.00,117.00 L 372.00,133.00 L 371.00,133.00 L 369.00,136.00 L 356.00,149.00 L 354.00,150.00 L 352.00,154.00 L 340.00,165.00 L 339.00,165.00 L 337.00,168.00 L 324.00,181.00 L 323.00,181.00 L 320.00,185.00 L 308.00,197.00 L 307.00,197.00 L 305.00,200.00 L 293.00,212.00 L 292.00,212.00 L 288.00,216.00 L 288.00,217.00 L 219.00,285.00 L 216.00,289.00 L 215.00,294.00 L 224.00,306.00 L 228.00,309.00 L 238.00,319.00 L 238.00,320.00 L 270.00,351.00 L 276.00,359.00 L 280.00,362.00 L 285.00,364.00 L 291.00,364.00 L 295.00,362.00 L 301.00,356.00 L 302.00,356.00 L 305.00,352.00 L 317.00,340.00 L 318.00,340.00 L 321.00,336.00 L 332.00,325.00 L 333.00,325.00 L 337.00,321.00 L 337.00,320.00 L 347.00,310.00 L 348.00,310.00 L 354.00,304.00 L 354.00,303.00 L 364.00,293.00 L 365.00,293.00 L 393.00,264.00 L 394.00,264.00 L 402.00,256.00 L 405.00,252.00 L 406.00,252.00 L 445.00,213.00 L 447.00,212.00 L 452.00,213.00 L 476.00,238.00 L 476.00,239.00 L 495.00,258.00 L 499.00,258.00 L 502.00,256.00 L 503.00,254.00 L 503.00,237.00 L 504.00,236.00 L 503.00,234.00 L 503.00,205.00 L 504.00,204.00 L 504.00,168.00 L 503.00,167.00 L 503.00,154.00 L 504.00,153.00 L 504.00,145.00 L 503.00,144.00 L 503.00,134.00 L 504.00,133.00 L 504.00,117.00 L 503.00,116.00 L 503.00,106.00 L 504.00,105.00 L 504.00,97.00 L 503.00,96.00 L 503.00,90.00 L 504.00,89.00 L 504.00,42.00 L 503.00,41.00 L 503.00,26.00 L 504.00,25.00 L 504.00,20.00 L 503.00,19.00 L 503.00,16.00 Z"/>
</svg>
