<svg xmlns="http://www.w3.org/2000/svg" viewBox="0 0 250 90" role="img" aria-label="Lexora logo refined white">
  <title>Lexora logo refined white</title>
  <path d="M 34.00,52.00 L 33.00,53.00 L 32.00,54.00 L 31.00,55.00 L 30.00,56.00 L 29.00,57.00 L 28.00,58.00 L 27.00,59.00 L 26.00,60.00 L 25.00,61.00 L 24.00,62.00 L 23.00,63.00 L 22.00,64.00 L 21.00,65.00 L 20.00,66.00 L 19.00,67.00 L 18.00,68.00 L 17.00,67.00 L 16.00,66.00 L 15.00,65.00 L 14.00,64.00 L 13.00,63.00 L 12.00,62.00 L 11.00,61.00 L 10.00,60.00 L 9.00,59.00 L 9.00,60.00 L 9.00,61.00 L 9.00,62.00 L 9.00,63.00 L 9.00,64.00 L 9.00,65.00 L 9.00,66.00 L 9.00,67.00 L 9.00,68.00 L 9.00,69.00 L 9.00,70.00 L 9.00,71.00 L 9.00,72.00 L 9.00,73.00 L 9.00,74.00 L 9.00,75.00 L 9.00,76.00 L 9.00,77.00 L 9.00,78.00 L 9.00,79.00 L 10.00,79.00 L 11.00,79.00 L 12.00,79.00 L 13.00,79.00 L 14.00,79.00 L 15.00,79.00 L 16.00,79.00 L 17.00,79.00 L 18.00,79.00 L 19.00,79.00 L 20.00,79.00 L 21.00,79.00 L 22.00,79.00 L 23.00,79.00 L 24.00,79.00 L 25.00,79.00 L 26.00,79.00 L 27.00,78.00 L 28.00,77.00 L 29.00,76.00 L 30.00,75.00 L 31.00,74.00 L 32.00,73.00 L 33.00,72.00 L 34.00,71.00 L 35.00,71.00 L 35.00,70.00 L 36.00,69.00 L 37.00,69.00 L 37.00,68.00 L 38.00,67.00 L 39.00,67.00 L 39.00,66.00 L 40.00,65.00 L 41.00,65.00 L 41.00,64.00 L 42.00,63.00 L 43.00,63.00 L 43.00,62.00 L 44.00,61.00 L 43.00,60.00 L 42.00,59.00 L 41.00,58.00 L 40.00,57.00 L 39.00,56.00 L 38.00,55.00 L 37.00,54.00 L 36.00,53.00 L 35.00,52.00 Z M 63.00,41.00 L 62.00,42.00 L 61.00,43.00 L 60.00,44.00 L 59.00,45.00 L 58.00,46.00 L 57.00,47.00 L 56.00,48.00 L 55.00,49.00 L 54.00,50.00 L 53.00,51.00 L 52.00,52.00 L 51.00,53.00 L 50.00,54.00 L 49.00,55.00 L 48.00,56.00 L 47.00,57.00 L 46.00,58.00 L 46.00,59.00 L 47.00,60.00 L 48.00,61.00 L 49.00,62.00 L 48.00,63.00 L 47.00,64.00 L 46.00,65.00 L 45.00,66.00 L 44.00,67.00 L 43.00,68.00 L 42.00,69.00 L 41.00,70.00 L 40.00,71.00 L 39.00,72.00 L 38.00,73.00 L 37.00,74.00 L 36.00,75.00 L 35.00,76.00 L 34.00,77.00 L 33.00,78.00 L 33.00,79.00 L 34.00,79.00 L 35.00,79.00 L 36.00,79.00 L 37.00,79.00 L 38.00,79.00 L 39.00,79.00 L 40.00,79.00 L 41.00,79.00 L 42.00,79.00 L 43.00,79.00 L 44.00,79.00 L 45.00,79.00 L 46.00,79.00 L 47.00,79.00 L 48.00,79.00 L 49.00,79.00 L 50.00,79.00 L 51.00,79.00 L 52.00,79.00 L 53.00,79.00 L 54.00,79.00 L 55.00,79.00 L 56.00,79.00 L 57.00,79.00 L 58.00,79.00 L 59.00,79.00 L 60.00,79.00 L 61.00,79.00 L 62.00,79.00 L 63.00,79.00 L 64.00,79.00 L 65.00,79.00 L 66.00,79.00 L 67.00,79.00 L 68.00,79.00 L 69.00,79.00 L 70.00,79.00 L 70.00,78.00 L 70.00,77.00 L 70.00,76.00 L 70.00,75.00 L 70.00,74.00 L 70.00,73.00 L 70.00,72.00 L 70.00,71.00 L 70.00,70.00 L 70.00,69.00 L 70.00,68.00 L 70.00,67.00 L 70.00,66.00 L 70.00,65.00 L 70.00,64.00 L 70.00,63.00 L 70.00,62.00 L 70.00,61.00 L 70.00,60.00 L 70.00,59.00 L 70.00,58.00 L 70.00,57.00 L 70.00,56.00 L 70.00,55.00 L 70.00,54.00 L 70.00,53.00 L 70.00,52.00 L 70.00,51.00 L 70.00,50.00 L 70.00,49.00 L 70.00,48.00 L 69.00,47.00 L 68.00,46.00 L 67.00,45.00 L 66.00,44.00 L 65.00,43.00 L 64.00,42.00 Z M 35.00,18.00 L 34.00,19.00 L 33.00,20.00 L 32.00,21.00 L 31.00,22.00 L 30.00,23.00 L 29.00,24.00 L 28.00,25.00 L 27.00,26.00 L 26.00,27.00 L 25.00,28.00 L 24.00,29.00 L 23.00,30.00 L 22.00,31.00 L 21.00,32.00 L 20.00,33.00 L 19.00,34.00 L 18.00,35.00 L 17.00,36.00 L 16.00,37.00 L 15.00,38.00 L 14.00,39.00 L 13.00,40.00 L 12.00,41.00 L 11.00,42.00 L 10.00,43.00 L 9.00,44.00 L 9.00,45.00 L 9.00,46.00 L 9.00,47.00 L 9.00,48.00 L 9.00,49.00 L 9.00,50.00 L 9.00,51.00 L 9.00,52.00 L 9.00,53.00 L 10.00,54.00 L 11.00,55.00 L 12.00,56.00 L 13.00,57.00 L 14.00,58.00 L 15.00,59.00 L 16.00,60.00 L 17.00,61.00 L 18.00,61.00 L 19.00,61.00 L 20.00,60.00 L 21.00,59.00 L 22.00,58.00 L 23.00,57.00 L 24.00,56.00 L 25.00,55.00 L 26.00,54.00 L 27.00,53.00 L 28.00,52.00 L 29.00,51.00 L 30.00,50.00 L 31.00,49.00 L 31.00,48.00 L 31.00,47.00 L 30.00,46.00 L 29.00,45.00 L 29.00,44.00 L 30.00,43.00 L 30.00,42.00 L 31.00,41.00 L 32.00,41.00 L 33.00,40.00 L 34.00,39.00 L 35.00,38.00 L 36.00,37.00 L 37.00,36.00 L 38.00,35.00 L 39.00,34.00 L 40.00,33.00 L 41.00,32.00 L 42.00,31.00 L 43.00,30.00 L 44.00,29.00 L 45.00,28.00 L 46.00,27.00 L 47.00,26.00 L 47.00,25.00 L 46.00,24.00 L 45.00,23.00 L 45.00,22.00 L 44.00,22.00 L 43.00,21.00 L 43.00,20.00 L 42.00,19.00 L 41.00,18.00 L 40.00,18.00 L 39.00,18.00 L 38.00,18.00 L 37.00,18.00 L 36.00,18.00 Z M 69.00,10.00 L 68.00,11.00 L 67.00,12.00 L 66.00,13.00 L 65.00,14.00 L 64.00,15.00 L 63.00,16.00 L 62.00,17.00 L 61.00,18.00 L 60.00,19.00 L 59.00,19.00 L 58.00,20.00 L 57.00,21.00 L 56.00,22.00 L 55.00,23.00 L 54.00,24.00 L 53.00,25.00 L 52.00,26.00 L 51.00,27.00 L 50.00,28.00 L 49.00,29.00 L 48.00,30.00 L 47.00,31.00 L 46.00,32.00 L 45.00,33.00 L 44.00,34.00 L 43.00,35.00 L 42.00,36.00 L 41.00,37.00 L 40.00,38.00 L 39.00,39.00 L 39.00,40.00 L 38.00,41.00 L 37.00,41.00 L 36.00,42.00 L 35.00,43.00 L 34.00,44.00 L 34.00,45.00 L 34.00,46.00 L 35.00,47.00 L 36.00,48.00 L 37.00,49.00 L 38.00,50.00 L 39.00,51.00 L 40.00,52.00 L 41.00,53.00 L 42.00,54.00 L 43.00,54.00 L 44.00,53.00 L 45.00,53.00 L 45.00,52.00 L 46.00,51.00 L 47.00,51.00 L 47.00,50.00 L 48.00,49.00 L 49.00,49.00 L 49.00,48.00 L 50.00,47.00 L 51.00,47.00 L 51.00,46.00 L 52.00,45.00 L 53.00,45.00 L 54.00,44.00 L 55.00,43.00 L 55.00,42.00 L 56.00,41.00 L 57.00,41.00 L 57.00,40.00 L 58.00,39.00 L 59.00,39.00 L 60.00,38.00 L 61.00,37.00 L 62.00,36.00 L 63.00,35.00 L 64.00,36.00 L 65.00,37.00 L 66.00,38.00 L 67.00,39.00 L 68.00,40.00 L 69.00,41.00 L 70.00,40.00 L 70.00,39.00 L 70.00,38.00 L 70.00,37.00 L 70.00,36.00 L 70.00,35.00 L 70.00,34.00 L 70.00,33.00 L 70.00,32.00 L 70.00,31.00 L 70.00,30.00 L 70.00,29.00 L 70.00,28.00 L 70.00,27.00 L 70.00,26.00 L 70.00,25.00 L 70.00,24.00 L 70.00,23.00 L 70.00,22.00 L 70.00,21.00 L 70.00,20.00 L 70.00,19.00 L 70.00,18.00 L 70.00,17.00 L 70.00,16.00 L 70.00,15.00 L 70.00,14.00 L 70.00,13.00 L 70.00,12.00 L 70.00,11.00 L 70.00,10.00 Z" fill="#FFFFFF" fill-rule="evenodd"/>
  <path d="M 98.05,54.47 L 117.81,54.47 L 117.81,50.69 L 102.31,50.69 L 102.31,21.00 L 98.05,21.00 L 98.05,54.47 Z M 134.12,55.00 C 139.26,55.00 143.01,52.42 144.18,48.62 L 140.27,47.54 C 139.33,50.11 137.10,51.41 134.14,51.41 C 129.69,51.41 126.64,48.54 126.44,43.28 L 144.58,43.28 L 144.58,41.59 C 144.58,32.32 138.97,29.04 133.64,29.04 C 126.79,29.04 122.35,34.40 122.35,42.11 C 122.35,49.84 126.84,55.00 134.12,55.00 Z M 126.46,39.87 C 126.70,36.02 129.33,32.63 133.64,32.63 C 137.78,32.63 140.09,35.60 140.47,39.87 L 126.46,39.87 Z M 148.29,54.47 L 152.96,54.47 L 156.69,48.83 C 157.81,47.12 158.57,45.60 159.34,44.18 C 160.17,45.60 161.00,47.12 162.10,48.83 L 165.79,54.47 L 170.48,54.47 L 161.68,41.79 L 170.07,29.35 L 165.45,29.35 L 162.26,34.23 C 161.09,36.00 160.33,37.62 159.52,39.13 C 158.64,37.62 157.79,36.00 156.65,34.23 L 153.52,29.35 L 148.80,29.35 L 157.11,41.57 L 148.29,54.47 Z M 185.71,55.00 C 192.56,55.00 197.19,49.81 197.19,42.07 C 197.19,34.20 192.56,29.04 185.71,29.04 C 178.88,29.04 174.28,34.20 174.28,42.07 C 174.28,49.81 178.88,55.00 185.71,55.00 Z M 185.71,51.39 C 180.70,51.39 178.39,47.00 178.39,42.07 C 178.39,37.06 180.70,32.66 185.71,32.66 C 190.79,32.66 193.10,37.08 193.10,42.07 C 193.10,47.00 190.79,51.39 185.71,51.39 Z M 203.07,54.47 L 207.11,54.47 L 207.11,38.74 C 207.11,35.35 209.76,32.90 213.38,32.90 C 214.46,32.90 215.56,33.08 215.81,33.13 L 215.81,29.06 C 215.33,29.04 214.35,28.99 213.76,28.99 C 210.78,28.99 208.17,30.68 207.25,33.22 L 206.98,33.22 L 206.98,29.35 L 203.07,29.35 L 203.07,54.47 Z M 227.42,55.05 C 231.67,55.05 234.02,52.83 234.87,51.05 L 235.15,51.05 L 235.15,54.47 L 239.12,54.47 L 239.12,37.91 C 239.12,30.07 233.08,29.04 229.71,29.04 C 225.82,29.04 221.51,30.43 219.58,34.99 L 223.47,36.27 C 224.25,34.52 226.20,32.59 229.82,32.59 C 233.31,32.59 235.08,34.38 235.08,37.51 L 235.08,37.64 C 235.08,39.51 233.10,39.37 228.63,39.93 C 223.98,40.51 218.86,41.57 218.86,47.32 C 218.86,52.27 222.65,55.05 227.42,55.05 Z M 228.12,51.48 C 225.10,51.48 222.93,50.13 222.93,47.52 C 222.93,44.67 225.51,43.73 228.45,43.35 C 230.00,43.14 234.41,42.69 235.08,41.91 L 235.08,45.39 C 235.08,48.47 232.59,51.48 228.12,51.48 Z" fill="#FFFFFF"/>
</svg>