<svg xmlns="http://www.w3.org/2000/svg" viewBox="0 0 75 90" role="img" aria-label="Lexora icon only white">
  <title>Lexora icon only white</title>
  <path d="M 44.00,61.00 L 35.00,52.00 L 34.00,52.00 L 18.00,68.00 L 9.00,59.00 L 9.00,79.00 L 26.00,79.00 L 34.00,71.00 L 35.00,71.00 L 35.00,70.00 L 37.00,69.00 L 37.00,68.00 L 39.00,67.00 L 39.00,66.00 L 41.00,65.00 L 41.00,64.00 L 43.00,63.00 Z M 63.00,41.00 L 46.00,58.00 L 46.00,59.00 L 49.00,62.00 L 33.00,78.00 L 33.00,79.00 L 70.00,79.00 L 70.00,48.00 Z M 41.00,18.00 L 35.00,18.00 L 9.00,44.00 L 9.00,53.00 L 17.00,61.00 L 19.00,61.00 L 31.00,49.00 L 31.00,47.00 L 29.00,45.00 L 30.00,42.00 L 32.00,41.00 L 47.00,26.00 L 45.00,22.00 L 44.00,22.00 Z M 70.00,10.00 L 69.00,10.00 L 60.00,19.00 L 59.00,19.00 L 39.00,39.00 L 39.00,40.00 L 37.00,41.00 L 34.00,44.00 L 34.00,46.00 L 42.00,54.00 L 45.00,53.00 L 45.00,52.00 L 47.00,51.00 L 47.00,50.00 L 49.00,49.00 L 49.00,48.00 L 51.00,47.00 L 51.00,46.00 L 53.00,45.00 L 55.00,43.00 L 55.00,42.00 L 57.00,41.00 L 57.00,40.00 L 59.00,39.00 L 63.00,35.00 L 69.00,41.00 L 70.00,40.00 Z" fill="#FFFFFF" fill-rule="evenodd"/>
</svg>
